<svg width="131" height="53" fill="none" xmlns="http://www.w3.org/2000/svg"><path fill="#fff" d="M0 .94h4v50H0zM14.138 15V1.91h8.82V4.19h-6.052v3.12h5.599v2.281h-5.6v3.126h6.08V15h-8.847Zm13.05.185c-.627 0-1.185-.108-1.675-.326a2.696 2.696 0 0 1-1.163-.978c-.282-.434-.422-.976-.422-1.623 0-.546.1-1.004.3-1.374.2-.371.473-.67.819-.895a3.969 3.969 0 0 1 1.176-.512 8.966 8.966 0 0 1 1.393-.243 35.26 35.26 0 0 0 1.38-.166c.35-.055.604-.136.762-.243a.534.534 0 0 0 .236-.473v-.038c0-.405-.128-.718-.384-.94-.251-.221-.609-.332-1.073-.332-.49 0-.88.109-1.17.326a1.5 1.5 0 0 0-.576.805l-2.518-.204c.128-.597.38-1.112.754-1.547a3.62 3.62 0 0 1 1.451-1.01c.597-.239 1.287-.358 2.071-.358.546 0 1.068.064 1.566.192.503.128.949.326 1.336.594.392.269.701.614.927 1.036.226.417.339.918.339 1.502V15h-2.582v-1.361h-.077a2.772 2.772 0 0 1-.633.811c-.264.23-.582.412-.952.544-.371.127-.8.191-1.285.191Zm.78-1.879c.4 0 .754-.079 1.06-.236a1.88 1.88 0 0 0 .723-.652c.175-.273.262-.582.262-.927v-1.042a1.46 1.46 0 0 1-.351.153 6.403 6.403 0 0 1-.493.122c-.183.034-.366.066-.55.096l-.498.07c-.32.047-.599.121-.837.224a1.34 1.34 0 0 0-.556.415c-.133.17-.199.384-.199.64 0 .37.135.653.403.85.273.191.618.287 1.036.287ZM34.109 15V5.182h2.64v1.713h.103c.179-.61.48-1.07.901-1.38a2.37 2.37 0 0 1 1.457-.474 4.118 4.118 0 0 1 .857.096v2.416a3.556 3.556 0 0 0-.53-.102 4.766 4.766 0 0 0-.62-.045c-.401 0-.76.088-1.075.262a1.93 1.93 0 0 0-.741.716c-.179.307-.268.66-.268 1.061V15h-2.724Zm12.36-9.818v2.045h-5.912V5.182h5.912ZM41.9 2.83h2.723v9.153c0 .251.038.447.115.588a.635.635 0 0 0 .32.288c.14.055.302.083.485.083.128 0 .256-.01.384-.032l.294-.058.428 2.027a7.666 7.666 0 0 1-.575.147 4.62 4.62 0 0 1-.901.108c-.657.026-1.232-.062-1.726-.262a2.41 2.41 0 0 1-1.144-.933c-.273-.422-.407-.955-.403-1.598V2.83Zm8.558 6.494V15h-2.723V1.91h2.646v5.004h.115c.222-.58.58-1.033 1.074-1.361.494-.333 1.115-.499 1.86-.499.682 0 1.277.15 1.784.447.511.294.907.718 1.189 1.272.285.55.426 1.209.422 1.976V15H54.1V9.234c.005-.605-.149-1.076-.46-1.412-.307-.337-.737-.505-1.291-.505-.37 0-.699.079-.984.236a1.676 1.676 0 0 0-.665.69c-.158.299-.239.659-.243 1.08ZM16.905 19.909V33h-2.767V19.91h2.768Zm4.23 7.415V33h-2.723v-9.818h2.595v1.732h.115a2.74 2.74 0 0 1 1.093-1.355c.511-.337 1.131-.505 1.86-.505.682 0 1.276.15 1.783.447.507.299.902.725 1.183 1.279.281.55.422 1.206.422 1.969V33H24.74v-5.766c.004-.6-.15-1.07-.46-1.406-.312-.34-.74-.511-1.285-.511-.367 0-.69.079-.972.236a1.648 1.648 0 0 0-.652.69c-.153.299-.232.659-.236 1.08Zm13.034-4.142v2.045h-6.06v-2.045h6.06ZM29.496 33V22.472c0-.711.139-1.302.416-1.77a2.67 2.67 0 0 1 1.15-1.055c.486-.234 1.038-.351 1.656-.351.417 0 .799.031 1.144.095.35.064.61.122.78.173l-.486 2.045a3.402 3.402 0 0 0-.396-.096 2.475 2.475 0 0 0-.473-.044c-.401 0-.68.093-.838.281-.157.183-.236.441-.236.773V33h-2.717Zm9.7.192c-.992 0-1.85-.211-2.575-.633a4.33 4.33 0 0 1-1.669-1.777c-.392-.763-.588-1.647-.588-2.653 0-1.014.196-1.9.588-2.659a4.279 4.279 0 0 1 1.669-1.777c.724-.426 1.583-.639 2.576-.639.993 0 1.85.213 2.57.64a4.267 4.267 0 0 1 1.674 1.776c.392.759.588 1.645.588 2.66 0 1.005-.196 1.89-.588 2.652a4.317 4.317 0 0 1-1.675 1.777c-.72.422-1.576.633-2.57.633Zm.014-2.11c.451 0 .828-.128 1.13-.383.303-.26.531-.614.685-1.061.157-.448.236-.957.236-1.528 0-.57-.079-1.08-.236-1.528-.154-.447-.382-.8-.684-1.06-.303-.26-.68-.39-1.132-.39-.456 0-.839.13-1.15.39-.307.26-.54.613-.697 1.06-.153.448-.23.957-.23 1.528 0 .571.077 1.08.23 1.528.158.447.39.8.697 1.06.311.256.695.384 1.15.384ZM45.08 33v-9.818h2.64v1.713h.102c.179-.61.48-1.07.901-1.38a2.369 2.369 0 0 1 1.458-.474 4.106 4.106 0 0 1 .856.096v2.416a3.548 3.548 0 0 0-.53-.102 4.77 4.77 0 0 0-.62-.045c-.401 0-.759.088-1.074.262a1.93 1.93 0 0 0-.742.716c-.179.307-.268.66-.268 1.061V33H45.08Zm6.645 0v-9.818h2.595v1.732h.115a2.723 2.723 0 0 1 1.023-1.361c.477-.333 1.048-.499 1.713-.499.673 0 1.246.168 1.72.505.472.332.788.784.945 1.355h.103c.2-.562.562-1.012 1.086-1.349.529-.34 1.153-.511 1.873-.511.916 0 1.66.292 2.231.876.575.58.863 1.402.863 2.467V33h-2.717v-6.066c0-.546-.145-.955-.434-1.227-.29-.273-.652-.41-1.087-.41-.494 0-.88.158-1.157.474-.277.31-.415.722-.415 1.233V33h-2.64v-6.124c0-.481-.139-.865-.416-1.15-.273-.286-.633-.428-1.08-.428a1.5 1.5 0 0 0-.818.23 1.58 1.58 0 0 0-.57.633c-.14.268-.21.583-.21.945V33h-2.723Zm18.498.185c-.627 0-1.185-.108-1.675-.326a2.697 2.697 0 0 1-1.163-.978c-.282-.434-.422-.976-.422-1.623 0-.546.1-1.004.3-1.374.2-.371.473-.67.818-.895a3.967 3.967 0 0 1 1.176-.512 8.952 8.952 0 0 1 1.394-.243 35.44 35.44 0 0 0 1.38-.166c.35-.055.603-.136.761-.243a.534.534 0 0 0 .237-.473v-.038c0-.405-.128-.718-.384-.94-.251-.221-.61-.332-1.074-.332-.49 0-.88.109-1.17.326a1.5 1.5 0 0 0-.575.805l-2.518-.204c.128-.597.38-1.113.754-1.547a3.62 3.62 0 0 1 1.451-1.01c.597-.239 1.287-.358 2.071-.358.546 0 1.068.064 1.566.192.503.128.948.326 1.336.594.392.269.701.614.927 1.036.226.417.339.918.339 1.502V33h-2.583v-1.361h-.076a2.77 2.77 0 0 1-.633.811c-.264.23-.582.411-.953.544-.37.127-.799.191-1.284.191Zm.78-1.879c.4 0 .754-.079 1.06-.236a1.88 1.88 0 0 0 .723-.652c.174-.273.262-.582.262-.927v-1.042a1.459 1.459 0 0 1-.352.153 6.391 6.391 0 0 1-.492.122c-.183.034-.366.066-.55.096l-.498.07c-.32.047-.599.121-.838.224a1.34 1.34 0 0 0-.556.415c-.132.17-.198.384-.198.64 0 .37.135.653.403.85.273.191.618.287 1.035.287Zm11.364-8.124v2.045h-5.913v-2.045h5.913Zm-4.57-2.352h2.722v9.153c0 .251.039.447.115.588a.634.634 0 0 0 .32.288c.14.055.303.083.486.083.128 0 .255-.01.383-.032l.294-.058.429 2.027a7.67 7.67 0 0 1-.576.147 4.62 4.62 0 0 1-.901.108c-.656.026-1.231-.062-1.726-.262-.49-.2-.871-.511-1.144-.933-.273-.422-.407-.955-.403-1.598v-9.512ZM83.42 33v-9.818h2.723V33H83.42Zm1.368-11.084a1.48 1.48 0 0 1-1.042-.402 1.306 1.306 0 0 1-.428-.979c0-.375.143-.696.428-.965.29-.272.638-.409 1.042-.409.405 0 .75.137 1.036.41.29.268.434.59.434.964 0 .38-.144.706-.434.979-.286.268-.63.402-1.036.402Zm7.253 11.276c-.993 0-1.852-.211-2.576-.633a4.33 4.33 0 0 1-1.669-1.777c-.392-.763-.588-1.647-.588-2.653 0-1.014.196-1.9.588-2.659a4.279 4.279 0 0 1 1.669-1.777c.724-.426 1.583-.639 2.576-.639.993 0 1.85.213 2.57.64a4.268 4.268 0 0 1 1.674 1.776c.392.759.588 1.645.588 2.66 0 1.005-.196 1.89-.588 2.652a4.318 4.318 0 0 1-1.675 1.777c-.72.422-1.576.633-2.57.633Zm.013-2.11c.451 0 .828-.128 1.13-.383.303-.26.532-.614.685-1.061.158-.448.236-.957.236-1.528 0-.57-.078-1.08-.236-1.528-.153-.447-.382-.8-.684-1.06-.303-.26-.68-.39-1.131-.39-.456 0-.84.13-1.151.39-.307.26-.54.613-.697 1.06-.153.448-.23.957-.23 1.528 0 .571.077 1.08.23 1.528.158.447.39.8.697 1.06.311.256.695.384 1.15.384Zm8.593-3.758V33h-2.723v-9.818h2.595v1.732h.115a2.74 2.74 0 0 1 1.093-1.355c.511-.337 1.131-.505 1.86-.505.682 0 1.276.15 1.783.447.508.299.902.725 1.183 1.279.281.55.422 1.206.422 1.969V33h-2.723v-5.766c.004-.6-.149-1.07-.46-1.406-.311-.34-.74-.511-1.285-.511-.367 0-.69.079-.972.236a1.65 1.65 0 0 0-.652.69c-.153.299-.232.659-.236 1.08ZM25.688 42.492h-2.8a2.736 2.736 0 0 0-.313-.965 2.456 2.456 0 0 0-.607-.729 2.67 2.67 0 0 0-.857-.46 3.274 3.274 0 0 0-1.041-.16c-.678 0-1.268.169-1.771.505-.503.333-.893.818-1.17 1.458-.277.635-.415 1.406-.415 2.314 0 .933.138 1.717.415 2.352.281.635.674 1.114 1.176 1.438.503.324 1.085.486 1.745.486.371 0 .714-.05 1.03-.147.32-.098.603-.241.85-.428.247-.192.451-.425.613-.697.166-.273.282-.584.346-.933l2.8.012a5.224 5.224 0 0 1-1.7 3.228 5.443 5.443 0 0 1-1.727 1.036c-.665.251-1.417.377-2.256.377-1.168 0-2.212-.264-3.132-.793-.917-.528-1.641-1.293-2.174-2.294-.528-1.002-.792-2.214-.792-3.637 0-1.428.268-2.642.805-3.644.537-1.001 1.266-1.764 2.186-2.288.92-.529 1.956-.793 3.107-.793.758 0 1.461.107 2.11.32a5.35 5.35 0 0 1 1.731.933c.503.405.912.901 1.228 1.49.32.587.524 1.26.613 2.02Zm5.688 8.7c-1.01 0-1.879-.205-2.608-.614a4.201 4.201 0 0 1-1.674-1.751c-.393-.759-.588-1.656-.588-2.691 0-1.01.195-1.897.588-2.66a4.347 4.347 0 0 1 1.655-1.783c.716-.426 1.556-.639 2.519-.639.647 0 1.25.104 1.809.313a4.013 4.013 0 0 1 1.47.927c.422.413.75.933.984 1.56.234.622.352 1.35.352 2.186v.748h-8.29V45.1h5.726c0-.392-.085-.74-.255-1.042a1.831 1.831 0 0 0-.71-.71 2.024 2.024 0 0 0-1.042-.261c-.413 0-.78.095-1.1.287a2.016 2.016 0 0 0-.74.76c-.18.316-.271.668-.276 1.056v1.604c0 .486.09.906.269 1.26.183.353.441.626.773.817.333.192.727.288 1.183.288.303 0 .58-.042.83-.128.252-.085.468-.213.647-.383.178-.17.315-.38.409-.627l2.518.166a3.439 3.439 0 0 1-.786 1.586c-.392.447-.9.797-1.521 1.048-.618.247-1.332.37-2.142.37Zm8.287-5.868V51H36.94v-9.818h2.595v1.732h.115a2.74 2.74 0 0 1 1.093-1.355c.511-.337 1.131-.505 1.86-.505.682 0 1.276.15 1.783.447.508.299.902.725 1.183 1.279.281.55.422 1.206.422 1.969V51h-2.723v-5.766c.004-.6-.15-1.07-.46-1.406-.312-.34-.74-.511-1.285-.511-.367 0-.69.079-.972.236a1.648 1.648 0 0 0-.652.69c-.153.299-.232.659-.236 1.08Zm12.976-4.142v2.045h-5.913v-2.045h5.913Zm-4.57-2.352h2.723v9.153c0 .251.038.447.115.588a.635.635 0 0 0 .32.288c.14.055.302.083.485.083.128 0 .256-.01.384-.032l.294-.058.428 2.027a7.684 7.684 0 0 1-.575.147 4.62 4.62 0 0 1-.901.108c-.657.026-1.232-.062-1.726-.262-.49-.2-.872-.511-1.144-.933-.273-.422-.407-.955-.403-1.598V38.83Zm9.993 12.362c-1.01 0-1.88-.205-2.608-.614a4.202 4.202 0 0 1-1.675-1.751c-.392-.759-.588-1.656-.588-2.691 0-1.01.196-1.897.588-2.66a4.347 4.347 0 0 1 1.656-1.783c.716-.426 1.555-.639 2.518-.639.648 0 1.251.104 1.81.313a4.013 4.013 0 0 1 1.47.927c.421.413.75.933.984 1.56.234.622.351 1.35.351 2.186v.748h-8.29V45.1h5.727c0-.392-.085-.74-.256-1.042a1.831 1.831 0 0 0-.71-.71 2.024 2.024 0 0 0-1.041-.261c-.413 0-.78.095-1.1.287a2.016 2.016 0 0 0-.74.76c-.18.316-.272.668-.276 1.056v1.604c0 .486.09.906.269 1.26.183.353.44.626.773.817.333.192.727.288 1.183.288.302 0 .58-.042.83-.128.252-.085.467-.213.646-.383.18-.17.316-.38.41-.627l2.518.166a3.439 3.439 0 0 1-.786 1.586c-.392.447-.9.797-1.522 1.048-.618.247-1.331.37-2.141.37ZM63.625 51v-9.818h2.64v1.713h.103c.178-.61.479-1.07.9-1.38a2.37 2.37 0 0 1 1.458-.474 4.104 4.104 0 0 1 .857.096v2.416a3.547 3.547 0 0 0-.53-.102 4.774 4.774 0 0 0-.62-.045c-.401 0-.76.088-1.075.262a1.93 1.93 0 0 0-.741.716c-.18.307-.269.66-.269 1.061V51h-2.723Z"/></svg>